<svg xmlns="http://www.w3.org/2000/svg" width="23" height="23" viewBox="0 0 23 23">
  <defs>
    <style>.a{fill:#fff;}.b{fill:none;stroke:#000;stroke-linecap:round;stroke-linejoin:round;stroke-width:1.5px;}</style>
  </defs>
  <g transform="translate(-919 -788)">
    <circle class="a" cx="11.5" cy="11.5" r="11.5" transform="translate(919 788)"/>
    <path class="b" d="M12,21a9,9,0,0,0,8.716-6.746M12,21a9,9,0,0,1-8.716-6.746M12,21c2.485,0,4.5-4.03,4.5-9S14.485,3,12,3m0,18c-2.485,0-4.5-4.03-4.5-9S9.515,3,12,3m0,0a9,9,0,0,1,7.843,4.582M12,3A9,9,0,0,0,4.157,7.582m15.686,0A11.953,11.953,0,0,1,12,10.5,11.953,11.953,0,0,1,4.157,7.582m15.686,0a9.035,9.035,0,0,1,.873,6.671m0,0A17.919,17.919,0,0,1,12,16.5a17.919,17.919,0,0,1-8.716-2.247m0,0a9.035,9.035,0,0,1,.873-6.671" transform="translate(918.5 787.5)"/>
  </g>
</svg>